<?xml version="1.0" standalone="no"?>
<!DOCTYPE svg PUBLIC "-//W3C//DTD SVG 20010904//EN"
 "http://www.w3.org/TR/2001/REC-SVG-20010904/DTD/svg10.dtd">
<svg version="1.0" xmlns="http://www.w3.org/2000/svg"
 width="700.000000pt" height="700.000000pt" viewBox="0 0 700.000000 700.000000"
 preserveAspectRatio="xMidYMid meet">
<metadata>
Created by potrace 1.14, written by Peter Selinger 2001-2017
</metadata>
<g transform="translate(0.000000,700.000000) scale(0.100000,-0.100000)"
fill="#000000" stroke="none">
<path d="M2559 6625 c-106 -21 -151 -68 -150 -158 0 -179 203 -481 625 -934
32 -35 66 -72 75 -82 15 -17 163 -180 186 -205 66 -71 357 -411 454 -531 9
-12 43 -54 77 -95 55 -68 272 -355 350 -462 186 -258 377 -584 459 -783 21
-49 41 -99 46 -110 15 -35 38 -109 49 -160 7 -27 14 -59 16 -70 3 -11 6 -62 8
-114 5 -143 -30 -248 -107 -323 -36 -35 -135 -84 -187 -93 -19 -3 -36 -7 -37
-9 -4 -4 87 -121 98 -124 5 -2 9 -8 9 -14 0 -8 158 -222 195 -264 6 -7 19 -24
30 -40 11 -15 28 -37 37 -48 10 -12 41 -52 70 -91 29 -38 56 -71 61 -73 4 -2
7 -8 7 -14 0 -5 6 -15 13 -22 6 -7 52 -66 100 -130 l89 -117 30 40 c16 22 29
44 30 48 0 4 9 14 19 21 11 7 19 20 19 28 0 8 4 14 8 14 14 0 83 111 76 122
-4 6 -3 9 2 5 12 -7 87 100 79 113 -4 6 -1 9 5 8 16 -4 142 200 134 214 -4 6
-3 8 4 5 10 -7 102 140 102 163 0 5 5 10 11 10 6 0 8 7 5 16 -3 8 -2 13 2 10
12 -7 124 212 116 225 -4 7 -3 9 3 6 5 -3 24 22 41 55 23 46 28 64 19 70 -8 5
-7 8 6 8 10 0 22 11 27 25 8 22 32 77 60 140 5 11 18 43 30 70 12 28 28 63 35
80 11 23 11 31 2 37 -8 5 -6 8 7 8 12 0 16 5 13 15 -4 8 -2 17 3 20 5 3 25 58
46 123 20 64 39 124 42 132 3 8 7 20 7 25 1 6 5 18 10 28 4 10 8 33 9 52 0 18
4 31 9 28 4 -2 8 8 9 24 1 34 3 44 11 63 8 18 25 119 33 186 3 27 7 65 10 84
6 52 6 299 -1 309 -3 5 -7 31 -10 58 -11 111 -60 277 -78 266 -6 -3 -7 -1 -4
4 8 13 -12 73 -24 73 -5 0 -8 3 -7 8 4 18 -23 63 -34 56 -7 -4 -8 -3 -4 5 8
12 -9 45 -37 72 -7 8 -19 25 -26 37 -7 12 -17 20 -23 16 -7 -4 -8 -3 -4 5 12
18 -218 256 -237 244 -6 -3 -7 -1 -4 4 8 13 -27 46 -38 36 -4 -5 -5 -3 -2 3 7
12 -242 221 -353 297 -14 9 -56 40 -95 67 -174 125 -458 310 -476 310 -5 0 -9
3 -9 8 0 4 -9 12 -20 17 -10 6 -81 47 -157 91 -854 504 -1694 822 -2004 759z
m3136 -1865 c-3 -5 -12 -10 -18 -10 -7 0 -6 4 3 10 19 12 23 12 15 0z m-54
-53 c-10 -9 -11 -8 -5 6 3 10 9 15 12 12 3 -3 0 -11 -7 -18z m214 14 c-9 -8
-36 -10 -30 -2 2 4 11 8 20 8 8 0 13 -3 10 -6z m-724 -118 c13 -16 12 -17 -3
-4 -17 13 -22 21 -14 21 2 0 10 -8 17 -17z m319 -107 c0 -2 -8 -10 -17 -17
-16 -13 -17 -12 -4 4 13 16 21 21 21 13z m157 -131 c0 -8 -4 -12 -9 -9 -5 3
-6 10 -3 15 9 13 12 11 12 -6z m47 -43 c3 -5 -1 -9 -9 -9 -8 0 -12 4 -9 9 3 4
7 8 9 8 2 0 6 -4 9 -8z m436 -116 c0 -3 -4 -8 -10 -11 -5 -3 -10 -1 -10 4 0 6
5 11 10 11 6 0 10 -2 10 -4z m-160 -120 c0 -2 -7 -7 -16 -10 -8 -3 -12 -2 -9
4 6 10 25 14 25 6z m161 -43 c13 -16 12 -17 -3 -4 -10 7 -18 15 -18 17 0 8 8
3 21 -13z m-246 -3 c3 -5 1 -10 -4 -10 -6 0 -11 5 -11 10 0 6 2 10 4 10 3 0 8
-4 11 -10z m-150 -39 c-9 -8 -36 -10 -30 -2 2 4 11 8 20 8 8 0 13 -3 10 -6z
m45 -115 c0 -2 -8 -10 -17 -17 -16 -13 -17 -12 -4 4 13 16 21 21 21 13z m-9
-83 c13 -16 12 -17 -3 -4 -10 7 -18 15 -18 17 0 8 8 3 21 -13z m-186 -2 c3 -5
2 -12 -3 -15 -5 -3 -9 1 -9 9 0 17 3 19 12 6z m622 -56 c0 -8 -4 -12 -9 -9 -5
3 -6 10 -3 15 9 13 12 11 12 -6z m-436 -102 c13 -16 12 -17 -3 -4 -10 7 -18
15 -18 17 0 8 8 3 21 -13z m89 -77 c0 -2 -8 -10 -17 -17 -16 -13 -17 -12 -4 4
13 16 21 21 21 13z m-175 -206 c3 -5 1 -10 -4 -10 -6 0 -11 5 -11 10 0 6 2 10
4 10 3 0 8 -4 11 -10z m15 -156 c0 -8 -19 -13 -24 -6 -3 5 1 9 9 9 8 0 15 -2
15 -3z m74 -2 c3 -5 -1 -9 -9 -9 -8 0 -12 4 -9 9 3 4 7 8 9 8 2 0 6 -4 9 -8z
m-3 -199 c13 -16 12 -17 -3 -4 -10 7 -18 15 -18 17 0 8 8 3 21 -13z m-81 -279
c0 -8 -19 -13 -24 -6 -3 5 1 9 9 9 8 0 15 -2 15 -3z m4 -162 c3 -5 -1 -9 -9
-9 -8 0 -12 4 -9 9 3 4 7 8 9 8 2 0 6 -4 9 -8z"/>
<path d="M1931 5307 c-371 -503 -717 -1145 -872 -1620 -32 -97 -85 -291 -93
-342 -3 -16 -8 -41 -11 -55 -23 -115 -30 -204 -30 -365 0 -167 7 -230 36 -340
57 -220 133 -347 323 -545 151 -157 328 -307 556 -473 58 -42 110 -80 115 -84
53 -45 436 -286 640 -405 228 -133 632 -342 815 -422 36 -15 90 -39 120 -53
178 -82 482 -188 663 -232 180 -44 296 -55 390 -34 90 20 128 54 141 129 13
68 -57 251 -140 367 -19 26 -34 52 -34 57 0 6 -3 10 -7 10 -5 0 -15 12 -24 28
-14 25 -175 230 -190 242 -3 3 -33 37 -66 75 -33 39 -79 90 -103 115 -23 25
-74 80 -113 124 -40 43 -89 97 -111 120 -21 22 -62 67 -90 100 -28 32 -60 68
-71 80 -11 12 -42 49 -70 81 -27 32 -57 66 -65 75 -13 14 -62 71 -135 159 -11
13 -25 29 -31 35 -42 44 -347 435 -438 561 -36 50 -69 95 -74 100 -5 6 -17 24
-28 40 -10 17 -21 32 -24 35 -3 3 -39 57 -81 120 -216 329 -365 631 -423 858
-81 315 6 530 241 598 32 9 60 18 61 19 2 2 -110 153 -250 337 -139 183 -293
387 -343 453 -49 66 -95 126 -102 133 -10 10 -26 -6 -82 -81z"/>
</g>
</svg>
